<svg xmlns="http://www.w3.org/2000/svg" width="351" height="380" viewBox="0 0 351 380">
  <g fill="none" fill-rule="evenodd">
    <g transform="translate(96)">
      <path fill="#2B4D8F" d="M100.837,32.03 C87.028,37.472 79.245,27.678 79.245,27.678 C79.245,27.678 77.585,25.25 81.499,25.055 C81.499,25.055 84.091,24.984 89.303,25.626 C89.303,25.626 94.24,27.78 100.837,32.03"/>
      <path fill="#DE4A4F" d="M93.13,77.474 C83.432,77.474 82.847,84.422 82.847,84.422 C82.847,84.422 81.53,92.182 90.965,87.611 C90.965,87.611 100.67,82.326 101.955,90.926 C102.953,88.413 103.526,85.623 103.628,82.68 C101.103,77.405 93.13,77.474 93.13,77.474"/>
      <path fill="#F3EB5B" d="M23.653 51.295L33.878 46.948 36.591 62.358 36.671 62.823C36.731 63.153 36.839 63.479 36.999 63.793 37.88 65.519 39.992 66.204 41.719 65.324L54.969 58.566 61.928 65.268C62.621 65.937 63.721 66 64.488 65.379 65.32 64.706 65.448 63.487 64.775 62.656L57.405 53.549C56.773 52.77 55.693 52.434 54.698 52.796L54.389 52.907 43.672 56.794 42.785 39.24C42.765 38.891 42.706 38.513 42.606 38.163 41.877 35.611 39.218 34.134 36.666 34.862L36.063 35.034 19.566 39.746C19.338 39.813 19.076 39.904 18.851 39.999 15.732 41.325 14.278 44.929 15.604 48.048 16.931 51.167 20.534 52.621 23.653 51.295M64.499 72.475L49.67 70.465C48.746 70.342 47.785 70.728 47.218 71.547L47.052 71.787 38.865 83.623 28.336 67.912C28.177 67.677 27.979 67.432 27.773 67.223 25.939 65.365 22.947 65.346 21.089 67.179L20.752 67.512 1.986 86.037C1.859 86.163 1.729 86.302 1.611 86.441-.575 89.027-.252 92.895 2.334 95.082 4.92 97.269 8.788 96.946 10.974 94.36L24.343 78.553 35.849 92.416 36.081 92.696C36.347 93.014 36.673 93.291 37.055 93.509 38.775 94.493 40.969 93.895 41.953 92.174L51.101 76.166 64.215 76.329C65.18 76.343 66.024 75.634 66.157 74.654 66.301 73.594 65.558 72.619 64.499 72.475"/>
      <g transform="translate(14)">
        <path fill="#FFFFFE" d="M78.622,120.632 C75.636,119.709 75.193,117.567 75.193,117.567 C75.193,117.567 74.714,116.63 74.722,114.242 C87.581,112.051 100.73,100.661 107.848,83.95 C117.557,61.155 112.367,37.114 96.257,30.253 C84.22,25.125 69.494,31.045 58.768,43.875 C58.768,43.875 52.815,50.687 64.137,51.3 C73.53,52.312 81.423,57.767 86.274,67.633 C92.725,80.755 89.663,95.468 79.435,100.496 C70.308,104.984 59.704,102.148 52.804,91.698 C52.804,91.698 50.267,87.585 48.306,91.535 C48.306,91.535 46.235,95.159 48.306,99.934 C51.009,105.64 55.165,110.08 60.593,112.552 L60.525,112.545 C60.704,114.795 59.735,115.958 59.735,115.958 C59.735,115.958 58.903,117.483 56.182,117.707 C56.182,117.707 46.441,118.542 39.898,122.834 L39.895,122.851 C13.854,136.817 1.108,174.782 0.575,176.402 C-0.892,180.862 1.534,185.665 5.993,187.132 C6.875,187.422 7.77,187.56 8.651,187.56 C12.223,187.56 15.547,185.291 16.724,181.714 C18.965,174.903 25.823,159.085 35.978,147.677 C18.143,191.203 21.996,259.296 21.996,259.296 L44.61,259.296 C39.398,222.035 50.149,220.345 50.149,220.345 C50.149,220.345 60.31,215.465 71.651,259.296 L97.063,259.296 C97.063,259.296 76.135,210.752 86.371,154.587 C90.845,165.109 95.685,180.34 95.18,196.222 C95.03,200.914 98.713,204.839 103.405,204.988 C103.497,204.991 103.589,204.992 103.681,204.992 C108.25,204.992 112.024,201.362 112.171,196.763 C113.252,162.797 94.427,132.635 93.624,131.367 C89.853,124.243 78.622,120.632 78.622,120.632"/>
        <path fill="#2C5595" d="M131.484,40.124 C111.917,14.578 89.312,2.843 89.312,2.843 C80.247,-2.428 80.521,4.831 80.521,4.831 L80.818,15.544 L75.303,25.626 L75.304,25.626 L75.303,25.626 C70.091,24.984 67.499,25.055 67.499,25.055 C63.585,25.249 65.245,27.678 65.245,27.678 C65.245,27.678 73.027,37.471 86.833,32.03 C94.943,37.255 105.559,45.644 112.597,57.108 L121.721,50.445 L129.766,48.409 C129.766,48.409 136.609,47.145 131.484,40.124"/>
      </g>
    </g>
    <path fill="#7CA2C9" d="M36.2738781,254.768239 L36.2738781,240.058514 L46.2704092,224.067656 C42.9382322,222.465666 41.2721437,220.513543 41.2721437,218.211286 C41.2721437,214.7579 41.299419,213.722458 46.2704092,208.85019 C49.5844027,205.602011 53.5718813,205.05241 58.232845,207.201386 C59.5912212,210.28212 60.2704092,211.822487 60.2704092,211.822487 C60.2704092,211.822487 68.2320262,204.523816 74.2704092,203.278177 C80.3087923,202.032537 99.895348,199.489094 109.758879,208.85019 C116.334566,215.090921 122.211493,219.718509 127.389659,222.732956 C160.810105,215.45931 182.234675,211.822487 191.663369,211.822487 C205.806409,211.822487 254.086409,207.201386 267.806409,207.201386 C281.526409,207.201386 303.424296,212.045465 324.270409,233.406852 C338.167818,247.647777 346.834484,262.665652 350.270409,278.460476 L340.926188,379.774547 L281.526409,379.774547 C280.692159,374.411971 281.961596,370.921421 285.334722,369.302898 C288.707847,367.684374 296.686409,365.072177 309.270409,361.466306 L304.443047,345.465955 L285.334722,335.85732 L281.526409,333.847973 L266.270409,357.154145 L264.270409,371.557971 L209.392863,374.061202 C209.14162,369.566285 210.525301,366.343406 213.543906,364.392566 C216.562512,362.441726 222.984871,360.028919 232.810985,357.154145 L241.841953,324.600206 C230.219401,329.570916 220.786719,332.056271 213.543906,332.056271 C206.301093,332.056271 189.395982,329.570916 162.828572,324.600206 L175.135205,379.774547 L115.804587,379.774547 C115.122854,375.800212 116.395461,373.061354 119.622409,371.557971 C122.849357,370.054589 129.518535,368.508146 139.629944,366.918642 L124.034888,335.85732 L103.130409,366.918642 L45.2380638,364.378146 C44.0563299,361.30049 45.3044807,358.919636 48.982516,357.235586 C52.6605514,355.551536 59.311593,353.73409 68.935641,351.78325 L97.4651774,303.933846 C91.7991138,298.599928 83.0475244,296.581688 71.2104092,297.879128 C53.4547364,299.825287 12.7743167,296.813961 6.38715834,287.637218 C2.12905278,281.51939 2.03200787e-14,276.908612 2.84217094e-14,273.804883 C1.77227282,269.993069 4.86240923,268.087163 9.27040923,268.087163 C13.6784092,268.087163 22.6795655,266.508892 36.2738781,263.35235 L36.2738781,254.768239 Z"/>
    <path fill="#FFF" d="M161,215.481841 C163.516897,216.901008 165.488874,218.54406 166.915932,220.410995 C169.056519,223.211398 174.603624,233.508632 175.663778,237.418758 C176.370548,240.025508 178.497266,247.595637 182.043932,260.129144 L207.098658,260.129144 L194.74685,206 L161,208.142441 L161,215.481841 Z"/>
  </g>
</svg>
