<svg xmlns="http://www.w3.org/2000/svg" width="133" height="144" viewBox="0 0 133 144">
  <defs>
    <linearGradient id="bear-a" x1="50%" x2="50%" y1="0%" y2="100%">
      <stop offset="0%" stop-color="#5C5889"/>
      <stop offset="100%" stop-color="#7CA2C9"/>
    </linearGradient>
  </defs>
  <g fill="none" fill-rule="evenodd">
    <g transform="translate(36)">
      <path fill="#2B4D8F" d="M38.1545405,12.1960385 C32.9295135,14.2681846 29.9845946,10.5389308 29.9845946,10.5389308 C29.9845946,10.5389308 29.3564865,9.61442308 30.8374595,9.54017308 C30.8374595,9.54017308 31.8182162,9.51313846 33.7903243,9.75759231 C33.7903243,9.75759231 35.6583784,10.5777692 38.1545405,12.1960385"/>
      <path fill="#DE4A4F" d="M35.2383784,29.4997154 C31.5688649,29.4997154 31.3475135,32.1453 31.3475135,32.1453 C31.3475135,32.1453 30.8491892,35.1000692 34.4191892,33.3595731 C34.4191892,33.3595731 38.0913514,31.3472077 38.5775676,34.6218231 C38.9551892,33.66495 39.172,32.6026038 39.2105946,31.482 C38.2551892,29.4734423 35.2383784,29.4997154 35.2383784,29.4997154"/>
      <path fill="#F3EB5B" d="M8.94978378 19.5315577L12.8187027 17.8763538 13.8452432 23.7440077 13.8755135 23.9210654C13.8982162 24.0467192 13.9390811 24.17085 13.9996216 24.2904115 14.332973 24.9476192 15.1321081 25.2084462 15.7855676 24.8733692L20.7990811 22.3001308 23.4322162 24.8520462C23.6944324 25.1067808 24.1106486 25.1307692 24.4008649 24.8943115 24.7156757 24.6380538 24.7641081 24.1738962 24.5094595 23.8574769L21.7208108 20.3898115C21.4816757 20.0931923 21.073027 19.9652538 20.6965405 20.1030923L20.5796216 20.1453577 16.5245405 21.6254077 16.1889189 14.9413846C16.1813514 14.8084962 16.159027 14.6645654 16.1211892 14.5312962 15.8453514 13.5595731 14.8392432 12.9971769 13.8736216 13.2743769L13.6454595 13.3398692 7.40335135 15.1340538C7.31708108 15.1595654 7.21794595 15.1942154 7.13281081 15.2303885 5.95264865 15.7352885 5.40248649 17.1075808 5.90421622 18.2952 6.40632432 19.4828192 7.76962162 20.0364577 8.94978378 19.5315577M24.405027 27.59625L18.7940541 26.8309038C18.4444324 26.7840692 18.0808108 26.9310462 17.8662703 27.2428962L17.8034595 27.3342808 14.7056757 31.8410654 10.7217297 25.8588C10.6615676 25.7693192 10.5866486 25.6760308 10.5087027 25.59645 9.81475676 24.8889808 8.68264865 24.8817462 7.97962162 25.5796962L7.85210811 25.7064923.751459459 32.7602423C.703405405 32.8082192.654216216 32.8611462.609567568 32.9140731-.217567568 33.8987423-.0953513514 35.3715577.883135135 36.2043 1.86162162 37.0370423 3.32518919 36.9140538 4.15232432 35.9293846L9.21086486 29.9105654 13.5644865 35.1891692 13.6522703 35.2957846C13.7529189 35.4168692 13.8762703 35.5223423 14.0208108 35.60535 14.6716216 35.9800269 15.5017838 35.7523269 15.8741081 35.0970231L19.3355135 29.0016692 24.2975676 29.0637346C24.6627027 29.0690654 24.9820541 28.7991 25.0323784 28.4259462 25.0868649 28.0223308 24.8057297 27.6510808 24.405027 27.59625"/>
      <g transform="translate(5.297)">
        <path fill="#FFFFFE" d="M29.7488649,45.9329538 C28.619027,45.5815038 28.4514054,44.7658962 28.4514054,44.7658962 C28.4514054,44.7658962 28.2701622,44.4091154 28.2731892,43.4998385 C33.1387568,42.6655731 38.1140541,38.3286115 40.8073514,31.9655769 C44.481027,23.2859423 42.5172432,14.1318692 36.4215676,11.5194115 C31.867027,9.56682692 26.295027,11.8209808 22.2365405,16.70625 C22.2365405,16.70625 19.9840541,19.30005 24.2680541,19.5334615 C27.8221622,19.9188 30.8087027,21.9958962 32.6442162,25.7525654 C35.0851351,30.7490192 33.9265405,36.3512769 30.0564865,38.2657846 C26.603027,39.9746769 22.5907027,38.8948154 19.9798919,34.9157769 C19.9798919,34.9157769 19.0199459,33.3496731 18.2779459,34.8537115 C18.2779459,34.8537115 17.4943243,36.2336192 18.2779459,38.0517923 C19.3007027,40.2244615 20.8732432,41.9150769 22.9270811,42.8563385 L22.9013514,42.8536731 C22.9690811,43.7104038 22.6024324,44.1532385 22.6024324,44.1532385 C22.6024324,44.1532385 22.2876216,44.7339115 21.2580541,44.8192038 C21.2580541,44.8192038 17.5722703,45.1371462 15.0965405,46.7714077 L15.0954054,46.7778808 C5.24205405,52.0957038 0.419243243,66.5516077 0.217567568,67.1684538 C-0.337513514,68.8666846 0.580432432,70.6955192 2.26762162,71.2541077 C2.60135135,71.3645308 2.94,71.4170769 3.27335135,71.4170769 C4.62491892,71.4170769 5.88264865,70.5531115 6.328,69.1911 C7.17594595,66.5976808 9.77086486,60.5746731 13.6132973,56.2308577 C6.86491892,72.8042192 8.32281081,98.7319385 8.32281081,98.7319385 L16.8794595,98.7319385 C14.9073514,84.5440962 18.9752973,83.9005962 18.9752973,83.9005962 C18.9752973,83.9005962 22.82,82.0424423 27.1111892,98.7319385 L36.7265405,98.7319385 C36.7265405,98.7319385 28.8078378,80.2478769 32.6809189,58.8619731 C34.3737838,62.8684269 36.2051351,68.6679231 36.0140541,74.7153 C35.9572973,76.5018692 37.3508649,77.9963885 39.1262162,78.0531231 C39.161027,78.0542654 39.1958378,78.0546462 39.2306486,78.0546462 C40.9594595,78.0546462 42.3874595,76.6724538 42.4430811,74.9212962 C42.8521081,61.9880885 35.7291351,50.5033269 35.4252973,50.0205115 C33.9984324,47.3079115 29.7488649,45.9329538 29.7488649,45.9329538"/>
        <path fill="#2C5595" d="M49.7507027,15.2779846 C42.346973,5.55085385 33.7937297,1.08252692 33.7937297,1.08252692 C30.3637297,-0.924507692 30.4674054,1.83949615 30.4674054,1.83949615 L30.5797838,5.91867692 L28.493027,9.75759231 L28.4934054,9.75759231 L28.493027,9.75759231 C26.5209189,9.51313846 25.5401622,9.54017308 25.5401622,9.54017308 C24.0591892,9.61404231 24.6872973,10.5389308 24.6872973,10.5389308 C24.6872973,10.5389308 27.6318378,14.2678038 32.8557297,12.1960385 C35.9243784,14.1855577 39.9412432,17.3798308 42.6042703,21.7449692 L46.0565946,19.2079038 L49.1006486,18.4326577 C49.1006486,18.4326577 51.6898919,17.9513654 49.7507027,15.2779846"/>
      </g>
    </g>
    <path fill="url(#bear-a)" d="M13.7734324,96.8873916 L13.7734324,91.3435633 L17.5691816,85.3168991 C16.3039319,84.7131381 15.671307,83.9774182 15.671307,83.1097393 C15.671307,81.8082211 15.6816636,81.4179816 17.5691816,79.5817123 C18.8275269,78.3575327 20.341599,78.1503979 22.1113979,78.9603079 C22.6271823,80.1213806 22.8850745,80.7019169 22.8850745,80.7019169 C22.8850745,80.7019169 25.9081534,77.9511806 28.2009675,77.4817216 C30.4937816,77.0122626 37.9309269,76.0536852 41.6761749,79.5817123 C44.173007,81.9337303 46.4045151,83.6777845 48.3706994,84.8138748 C61.0606647,82.0725695 69.1957162,80.7019169 72.7758537,80.7019169 C78.14606,80.7019169 96.4782966,78.9603079 101.687872,78.9603079 C106.897447,78.9603079 115.21222,80.7859533 123.127627,88.8366725 C128.404566,94.2038186 131.695357,99.863783 133,105.816566 L129.451937,144 L106.897447,144 C106.580676,141.978942 107.06269,140.663417 108.343488,140.053425 C109.624286,139.443433 112.653799,138.458944 117.432028,137.099956 L115.599046,131.069715 L108.343488,127.448394 L106.897447,126.691108 L101.104642,135.474781 L100.345229,140.903322 L79.5078605,141.846744 C79.4124616,140.152691 79.9378544,138.938047 81.084039,138.202811 C82.2302236,137.467574 84.6688361,136.558231 88.3998766,135.474781 L91.8289953,123.205792 C87.4158352,125.079163 83.8341831,126.015848 81.084039,126.015848 C78.3338949,126.015848 71.9149118,125.079163 61.8270897,123.205792 L66.5,144 L43.9717705,144 C43.712912,142.502145 44.1961295,141.469919 45.421423,140.903322 C46.6467165,140.336724 49.1790478,139.753898 53.0184166,139.154843 L47.0968707,127.448394 L39.1593011,139.154843 L17.1771932,138.197376 C16.728481,137.037463 17.2024121,136.140163 18.5989866,135.505475 C19.995561,134.870787 22.5210057,134.185825 26.1753206,133.450588 L37.008175,115.417016 C34.856733,113.406759 31.5336964,112.646122 27.0390652,113.135103 C20.2971183,113.868575 4.85049286,112.733661 2.42524643,109.275113 C0.808415476,106.969415 -3.07624296e-15,105.231696 0,104.061957 C0.672943756,102.625354 1.84628907,101.907052 3.52003593,101.907052 C5.1937828,101.907052 8.61158161,101.31223 13.7734324,100.122587 L13.7734324,96.8873916 Z"/>
    <path fill="#FFF" d="M61,81.678585 C61.9281669,82.2291667 62.6553815,82.8666066 63.1816438,83.5909048 C63.9710372,84.677352 66.0166667,88.6722781 66.4076244,90.1892546 C66.6682628,91.2005722 67.4525418,94.1374874 68.7604613,99 L78,99 L73.4449707,78 L61,78.8311836 L61,81.678585 Z"/>
  </g>
</svg>
