<svg id="CAD_logo_horizontal_full" data-name="CAD logo horizontal full" xmlns="http://www.w3.org/2000/svg" viewBox="0 0 506.78 258.37"><defs><style>.cls-1{fill:#fff;}.cls-2{fill:#2031e5;}.cls-3{fill:#fc3e46;}.cls-4{fill:#fff33d;}.cls-5{fill:#0048ff;}</style></defs><title>logo</title><path class="cls-1" d="M242.81,258.37H216V220.14h7.65v30.58h19.12Z" transform="translate(-0.54 0)"/><path class="cls-1" d="M260.44,258.37h-7.63V227.79H241.32v-7.65H271.9v7.65H260.44Z" transform="translate(-0.54 0)"/><path class="cls-1" d="M205.32,234.18a19.11,19.11,0,0,0-1.94-4.57,18.24,18.24,0,0,0-3-3.87,19.65,19.65,0,0,0-3.86-3,19.18,19.18,0,0,0-4.56-1.93,19,19,0,0,0-14.72,1.93,19.65,19.65,0,0,0-3.86,3,18.24,18.24,0,0,0-3,3.87,18.85,18.85,0,0,0-2.62,9.65v19.11h7.66v-7.65h22.92v7.65H206V239.26A18.93,18.93,0,0,0,205.32,234.18Zm-29,.61a11.83,11.83,0,0,1,2.47-3.65,11.39,11.39,0,0,1,3.64-2.45,11.06,11.06,0,0,1,4.45-.9,11.23,11.23,0,0,1,4.47.9,11.39,11.39,0,0,1,6.1,6.1,11.19,11.19,0,0,1,.89,4.47v3.81H175.42v-3.81A11.19,11.19,0,0,1,176.32,234.79Z" transform="translate(-0.54 0)"/><path class="cls-1" d="M357.55,258.37H331.34V220.14h26.21v7.65H339v7.65h18.56v7.65H339v7.63h18.56Z" transform="translate(-0.54 0)"/><path class="cls-1" d="M394.32,258.37H367.55V220.14h7.65v30.58h19.12Z" transform="translate(-0.54 0)"/><path class="cls-1" d="M430.53,258.37H404.32V220.14h26.21v7.65H412v7.65h18.56v7.65H412v7.63h18.56Z" transform="translate(-0.54 0)"/><path class="cls-1" d="M459.64,258.37H452V227.79H440.53v-7.65h30.58v7.65H459.64Z" transform="translate(-0.54 0)"/><path class="cls-1" d="M507.31,258.37h-26.2V220.14h26.2v7.65H488.76v7.65h18.55v7.65H488.76v7.63h18.55Z" transform="translate(-0.54 0)"/><path class="cls-1" d="M320.66,234.18a18.45,18.45,0,0,0-1.93-4.56,19.34,19.34,0,0,0-3-3.87,19,19,0,0,0-13.51-5.61H290.71v15.3h7.65v-7.65h3.87a11,11,0,0,1,4.46.91,11.45,11.45,0,0,1,6.11,6.1,11.62,11.62,0,0,1,0,8.92,11.42,11.42,0,0,1-6.11,6.11,11.31,11.31,0,0,1-4.46.89H290.71v7.65h11.52a18.59,18.59,0,0,0,5.08-.68,18.92,18.92,0,0,0,8.43-4.93,19.06,19.06,0,0,0,3-3.87,19.15,19.15,0,0,0,1.93-14.71Z" transform="translate(-0.54 0)"/><path class="cls-1" d="M250.83,179.91a19.88,19.88,0,0,1-.72,5.37,21.38,21.38,0,0,1-2,4.84,20,20,0,0,1-3.17,4.11,20.3,20.3,0,0,1-4.1,3.18,20.26,20.26,0,0,1-15.58,2.05,20.46,20.46,0,0,1-12.13-9.34,20.13,20.13,0,0,1-2.05-4.84,20.16,20.16,0,0,1,2.05-15.59,20.52,20.52,0,0,1,3.18-4.09,20,20,0,0,1,4.11-3.17,20.75,20.75,0,0,1,4.84-2,20.42,20.42,0,0,1,10.75,0,20.33,20.33,0,0,1,4.83,2,19.9,19.9,0,0,1,4.1,3.17,20.11,20.11,0,0,1,3.17,4.09,21,21,0,0,1,2,4.84A20,20,0,0,1,250.83,179.91Zm-7.79,0a12,12,0,0,0-1-4.85,12.38,12.38,0,0,0-6.62-6.62,12.42,12.42,0,0,0-9.72,0,12.71,12.71,0,0,0-4,2.66,12.54,12.54,0,0,0-2.68,4,12.22,12.22,0,0,0-1,4.85,12,12,0,0,0,1,4.82,12.66,12.66,0,0,0,6.64,6.63,12.54,12.54,0,0,0,9.72,0,12.54,12.54,0,0,0,4-2.68,12.67,12.67,0,0,0,2.66-4A11.84,11.84,0,0,0,243,179.91Z" transform="translate(-0.54 0)"/><path class="cls-1" d="M294,200.18h-8.68l-15.62-26.67v26.67h-8.11V159.67h8.67l15.63,26.7v-26.7H294Z" transform="translate(-0.54 0)"/><path class="cls-1" d="M324.36,200.18h-8.08v-32.4H304.11v-8.11h32.4v8.11H324.36Z" transform="translate(-0.54 0)"/><path class="cls-1" d="M354.71,200.18H346.6V159.67h16.22a16,16,0,0,1,8.15,2.22,16.1,16.1,0,0,1,3.28,2.54,16.33,16.33,0,0,1,4.18,7.16,16.11,16.11,0,0,1,.58,4.3,15.7,15.7,0,0,1-.53,4.06,16.11,16.11,0,0,1-1.49,3.76A15.92,15.92,0,0,1,374.6,187a16.45,16.45,0,0,1-3.16,2.6l4.49,10.59h-8.62L363.78,192l-9.07.06Zm0-32.4V184h8.11a7.81,7.81,0,0,0,3.13-.63,8.09,8.09,0,0,0,4.31-4.32,8.07,8.07,0,0,0,0-6.3,8.23,8.23,0,0,0-1.73-2.59,8.5,8.5,0,0,0-2.58-1.74,7.81,7.81,0,0,0-3.13-.63Z" transform="translate(-0.54 0)"/><path class="cls-1" d="M469.45,200.18H441.09V159.67h8.1v32.41h20.26Z" transform="translate(-0.54 0)"/><path class="cls-1" d="M507.31,200.18H479.54V159.67h27.77v8.11H487.65v8.11h19.66V184H487.65v8.09h19.66Z" transform="translate(-0.54 0)"/><path class="cls-1" d="M168.48,185.31a20.29,20.29,0,0,0,2.05,4.83,21,21,0,0,0,3.17,4.1,19.93,19.93,0,0,0,8.94,5.22,20,20,0,0,0,5.38.72h12.21v-8.11H188a11.8,11.8,0,0,1-4.73-1,12.34,12.34,0,0,1-3.87-2.61,12.21,12.21,0,0,1-2.6-3.86,11.8,11.8,0,0,1-.95-4.71,12,12,0,0,1,.95-4.74,12.1,12.1,0,0,1,6.47-6.47,12,12,0,0,1,4.73-.94h12.21v-8.11H188a20,20,0,0,0-5.38.72,20.2,20.2,0,0,0-4.85,2.05,19.7,19.7,0,0,0-4.09,3.18,20.93,20.93,0,0,0-3.17,4.09,20.29,20.29,0,0,0-2.05,4.83,20.5,20.5,0,0,0,0,10.77Z" transform="translate(-0.54 0)"/><path class="cls-1" d="M430.3,179.91a19.88,19.88,0,0,1-.72,5.37,20.51,20.51,0,0,1-2,4.84,20.27,20.27,0,0,1-3.16,4.11,20.59,20.59,0,0,1-4.1,3.18,20,20,0,0,1-10.22,2.77,19.88,19.88,0,0,1-5.37-.72,20.47,20.47,0,0,1-8.95-5.23,20.32,20.32,0,0,1-5.23-8.95,20.42,20.42,0,0,1,0-10.75,20.6,20.6,0,0,1,2.05-4.84,21.29,21.29,0,0,1,3.18-4.09,19.76,19.76,0,0,1,4.12-3.17,20.68,20.68,0,0,1,4.83-2,20.42,20.42,0,0,1,10.75,0,20.58,20.58,0,0,1,4.84,2,20.17,20.17,0,0,1,4.1,3.17,20.42,20.42,0,0,1,3.16,4.09,20.15,20.15,0,0,1,2.76,10.22Zm-7.78,0a12.22,12.22,0,0,0-1-4.85,12.68,12.68,0,0,0-2.67-4,12.48,12.48,0,0,0-4-2.66,12.4,12.4,0,0,0-9.71,0,12.6,12.6,0,0,0-4,2.66,12.37,12.37,0,0,0-2.68,4,12,12,0,0,0-1,4.85,11.84,11.84,0,0,0,1,4.82,12.66,12.66,0,0,0,6.64,6.63,12.52,12.52,0,0,0,9.71,0,12.54,12.54,0,0,0,4-2.68,12.87,12.87,0,0,0,2.67-4A12,12,0,0,0,422.52,179.91Z" transform="translate(-0.54 0)"/><path class="cls-2" d="M101.21,31.11c-13.81,5.44-21.59-4.36-21.59-4.36S78,24.33,81.87,24.13a59.09,59.09,0,0,1,7.81.57A91.75,91.75,0,0,1,101.21,31.11Z" transform="translate(-0.54 0)"/><path class="cls-3" d="M93.5,76.55c-9.69,0-10.28,7-10.28,7s-1.31,7.76,8.12,3.19c0,0,9.7-5.29,11,3.31A24.52,24.52,0,0,0,104,81.76C101.48,76.48,93.5,76.55,93.5,76.55Z" transform="translate(-0.54 0)"/><path class="cls-4" d="M24,50.37,34.25,46,37,61.43l.08.47a3.56,3.56,0,0,0,.32,1,3.52,3.52,0,0,0,4.72,1.53l13.25-6.76,7,6.7a1.94,1.94,0,0,0,2.85-2.61l-7.37-9.11a2.44,2.44,0,0,0-2.71-.75l-.31.11L44.05,55.87l-.89-17.55A5.08,5.08,0,0,0,43,37.24,4.81,4.81,0,0,0,37,33.94l-.6.17-16.5,4.71a6,6,0,0,0-.71.26A6.13,6.13,0,1,0,24,50.37Z" transform="translate(-0.54 0)"/><path class="cls-4" d="M64.87,71.55,50,69.54a2.57,2.57,0,0,0-2.45,1.08l-.16.24L39.24,82.7,28.71,67a5.28,5.28,0,0,0-.56-.69,4.73,4.73,0,0,0-6.69,0l-.33.33L2.36,85.11a4.72,4.72,0,0,0-.37.41,6.13,6.13,0,1,0,9.36,7.92L24.72,77.63l11.5,13.86.24.28a3.33,3.33,0,0,0,1,.81,3.59,3.59,0,0,0,4.9-1.33l9.15-16,13.11.17a1.94,1.94,0,0,0,.28-3.86Z" transform="translate(-0.54 0)"/><path class="cls-1" d="M93,119.71c-3-.92-3.43-3.07-3.43-3.07a7.94,7.94,0,0,1-.47-3.32c12.86-2.19,26-13.58,33.12-30.29,9.71-22.8,4.52-46.84-11.59-53.7-12-5.13-26.76.79-37.49,13.62,0,0-6,6.81,5.37,7.43,9.39,1,17.29,6.46,22.14,16.33,6.45,13.12,3.39,27.83-6.84,32.86-9.13,4.49-19.73,1.65-26.63-8.8,0,0-2.54-4.11-4.5-.16a9.85,9.85,0,0,0,0,8.4A25.32,25.32,0,0,0,75,111.63H74.9a4.9,4.9,0,0,1-.79,3.41s-.83,1.53-3.55,1.75c0,0-9.74.84-16.29,5.13v0c-26,14-38.79,51.93-39.32,53.55a8.5,8.5,0,1,0,16.15,5.31c2.24-6.81,9.1-22.63,19.25-34-17.83,43.53-14,111.62-14,111.62H59c-5.22-37.26,5.53-39,5.53-39s10.16-4.88,21.51,39h25.41s-20.93-48.54-10.69-104.71c4.47,10.53,9.31,25.76,8.8,41.64a8.5,8.5,0,0,0,8.23,8.76h.27a8.51,8.51,0,0,0,8.5-8.23c1.08-34-17.75-64.13-18.55-65.4C104.23,123.32,93,119.71,93,119.71Z" transform="translate(-0.54 0)"/><path class="cls-5" d="M145.86,39.2C126.29,13.65,103.69,1.92,103.69,1.92c-9.07-5.27-8.79,2-8.79,2l.29,10.71L89.68,24.7h0a59.09,59.09,0,0,0-7.81-.57c-3.91.2-2.25,2.62-2.25,2.62s7.78,9.8,21.59,4.36c8.11,5.22,18.72,13.61,25.76,25.07l9.13-6.66,8-2S151,46.22,145.86,39.2Z" transform="translate(-0.54 0)"/></svg>